<svg viewBox="0 0 600 800" xmlns="http://www.w3.org/2000/svg">
  <defs>
    <filter id="shadowBox">
      <feDropShadow dx="0" dy="8" stdDeviation="12" flood-opacity="0.06" />
    </filter>
  </defs>

  <!-- Timeline Line -->
  <rect x="150" y="100" width="4" height="600" fill="#e2e8f0" rx="2" />
  <rect x="150" y="100" width="4" height="350" fill="#2563EB" rx="2" />

  <!-- Step 1: Submitted -->
  <circle cx="152" cy="150" r="16" fill="#2563EB" />
  <circle cx="152" cy="150" r="6" fill="#ffffff" />
  <rect x="200" y="110" width="300" height="80" rx="12" fill="#ffffff" filter="url(#shadowBox)" />
  <rect x="220" y="130" width="120" height="12" rx="6" fill="#1e293b" />
  <rect x="220" y="155" width="240" height="8" rx="4" fill="#94a3b8" />
  
  <!-- Step 2: In Progress -->
  <circle cx="152" cy="350" r="16" fill="#2563EB" />
  <circle cx="152" cy="350" r="6" fill="#ffffff" />
  <rect x="200" y="310" width="300" height="120" rx="12" fill="#ffffff" filter="url(#shadowBox)" />
  <rect x="220" y="330" width="150" height="12" rx="6" fill="#1e293b" />
  <rect x="220" y="360" width="240" height="8" rx="4" fill="#94a3b8" />
  <rect x="220" y="380" width="200" height="8" rx="4" fill="#94a3b8" />
  <rect x="220" y="400" width="80" height="8" rx="4" fill="#cbd5e1" />

  <!-- Step 3: Resolved (Pending) -->
  <circle cx="152" cy="600" r="16" fill="#ffffff" stroke="#cbd5e1" stroke-width="4" />
  <rect x="200" y="560" width="300" height="80" rx="12" fill="#ffffff" filter="url(#shadowBox)" opacity="0.6" />
  <rect x="220" y="580" width="100" height="12" rx="6" fill="#94a3b8" />
  <rect x="220" y="605" width="180" height="8" rx="4" fill="#cbd5e1" />
</svg>
